<svg width="900" height="260" viewBox="0 0 900 260" xmlns="http://www.w3.org/2000/svg">
  <defs>
    <linearGradient id="sky" x1="0" y1="0" x2="0" y2="1">
      <stop offset="0%" stop-color="#241f30"/>
      <stop offset="28%" stop-color="#4a3a4a"/>
      <stop offset="55%" stop-color="#c97a3d"/>
      <stop offset="75%" stop-color="#f2a35a"/>
      <stop offset="100%" stop-color="#f7c873"/>
    </linearGradient>
    <linearGradient id="river" x1="0" y1="0" x2="0" y2="1">
      <stop offset="0%" stop-color="#f2b06a"/>
      <stop offset="35%" stop-color="#9aa6c2"/>
      <stop offset="100%" stop-color="#4d5b78"/>
    </linearGradient>
    <g id="pine">
      <polygon points="12,0 20,11 4,11"/>
      <polygon points="12,7 23,19 1,19"/>
      <polygon points="12,14 26,28 -2,28"/>
      <rect x="9" y="27" width="6" height="8" fill="#4a2f1b"/>
    </g>
  </defs>

  <rect width="900" height="260" fill="url(#sky)"/>

  <g fill="#352a3d" opacity="0.85">
    <ellipse cx="90" cy="35" rx="90" ry="16"/>
    <ellipse cx="260" cy="22" rx="110" ry="14"/>
    <ellipse cx="470" cy="40" rx="100" ry="15"/>
    <ellipse cx="650" cy="20" rx="120" ry="14"/>
    <ellipse cx="820" cy="38" rx="95" ry="16"/>
  </g>
  <g fill="#ffb066" opacity="0.25">
    <ellipse cx="430" cy="55" rx="160" ry="10"/>
    <ellipse cx="500" cy="68" rx="200" ry="8"/>
  </g>

  <g>
    <line x1="225" y1="48" x2="231" y2="70" stroke="#dfe6ee" stroke-width="1.5" opacity="0.3"><animateTransform attributeName="transform" type="translate" values="0,0; 18,150; 0,0" dur="2.5s" begin="0.91s" repeatCount="indefinite"/></line>
    <line x1="558" y1="15" x2="564" y2="37" stroke="#dfe6ee" stroke-width="1.5" opacity="0.3"><animateTransform attributeName="transform" type="translate" values="0,0; 18,150; 0,0" dur="2.21s" begin="1.26s" repeatCount="indefinite"/></line>
    <line x1="243" y1="26" x2="249" y2="48" stroke="#dfe6ee" stroke-width="1.5" opacity="0.3"><animateTransform attributeName="transform" type="translate" values="0,0; 18,150; 0,0" dur="3.0s" begin="0.71s" repeatCount="indefinite"/></line>
    <line x1="739" y1="43" x2="745" y2="65" stroke="#dfe6ee" stroke-width="1.5" opacity="0.3"><animateTransform attributeName="transform" type="translate" values="0,0; 18,150; 0,0" dur="2.71s" begin="0.23s" repeatCount="indefinite"/></line>
    <line x1="566" y1="71" x2="572" y2="93" stroke="#dfe6ee" stroke-width="1.5" opacity="0.3"><animateTransform attributeName="transform" type="translate" values="0,0; 18,150; 0,0" dur="2.62s" begin="1.11s" repeatCount="indefinite"/></line>
    <line x1="597" y1="14" x2="603" y2="36" stroke="#dfe6ee" stroke-width="1.5" opacity="0.3"><animateTransform attributeName="transform" type="translate" values="0,0; 18,150; 0,0" dur="2.81s" begin="0.89s" repeatCount="indefinite"/></line>
    <line x1="279" y1="12" x2="285" y2="34" stroke="#dfe6ee" stroke-width="1.5" opacity="0.3"><animateTransform attributeName="transform" type="translate" values="0,0; 18,150; 0,0" dur="2.8899999999999997s" begin="0.71s" repeatCount="indefinite"/></line>
    <line x1="638" y1="72" x2="644" y2="94" stroke="#dfe6ee" stroke-width="1.5" opacity="0.3"><animateTransform attributeName="transform" type="translate" values="0,0; 18,150; 0,0" dur="2.77s" begin="1.38s" repeatCount="indefinite"/></line>
    <line x1="360" y1="66" x2="366" y2="88" stroke="#dfe6ee" stroke-width="1.5" opacity="0.3"><animateTransform attributeName="transform" type="translate" values="0,0; 18,150; 0,0" dur="2.56s" begin="1.4s" repeatCount="indefinite"/></line>
    <line x1="776" y1="17" x2="782" y2="39" stroke="#dfe6ee" stroke-width="1.5" opacity="0.3"><animateTransform attributeName="transform" type="translate" values="0,0; 18,150; 0,0" dur="2.31s" begin="0.33s" repeatCount="indefinite"/></line>
    <line x1="850" y1="41" x2="856" y2="63" stroke="#dfe6ee" stroke-width="1.5" opacity="0.3"><animateTransform attributeName="transform" type="translate" values="0,0; 18,150; 0,0" dur="2.7s" begin="0.45s" repeatCount="indefinite"/></line>
    <line x1="456" y1="37" x2="462" y2="59" stroke="#dfe6ee" stroke-width="1.5" opacity="0.3"><animateTransform attributeName="transform" type="translate" values="0,0; 18,150; 0,0" dur="2.48s" begin="0.88s" repeatCount="indefinite"/></line>
    <line x1="522" y1="73" x2="528" y2="95" stroke="#dfe6ee" stroke-width="1.5" opacity="0.3"><animateTransform attributeName="transform" type="translate" values="0,0; 18,150; 0,0" dur="2.75s" begin="1.39s" repeatCount="indefinite"/></line>
    <line x1="757" y1="79" x2="763" y2="101" stroke="#dfe6ee" stroke-width="1.5" opacity="0.3"><animateTransform attributeName="transform" type="translate" values="0,0; 18,150; 0,0" dur="2.74s" begin="0.24s" repeatCount="indefinite"/></line>
  </g>

  <polygon points="0,150 90,95 170,150" fill="#8a7a8f" opacity="0.5"/>
  <polygon points="120,150 230,80 330,150" fill="#8a7a8f" opacity="0.5"/>
  <polygon points="300,150 380,100 460,150" fill="#8a7a8f" opacity="0.5"/>
  <polygon points="560,150 660,90 760,150" fill="#8a7a8f" opacity="0.5"/>
  <polygon points="700,150 800,100 880,150" fill="#8a7a8f" opacity="0.5"/>

  <polygon points="-10,150 80,55 150,150" fill="#5b4a63" opacity="0.8"/>
  <polygon points="80,55 95,68 65,68" fill="#e8e4ec" opacity="0.85"/>
  <polygon points="170,150 260,40 350,150" fill="#5b4a63" opacity="0.8"/>
  <polygon points="260,40 280,58 240,58" fill="#e8e4ec" opacity="0.85"/>
  <polygon points="380,150 470,70 560,150" fill="#5b4a63" opacity="0.8"/>
  <polygon points="470,70 488,86 452,86" fill="#e8e4ec" opacity="0.8"/>
  <polygon points="560,150 650,50 740,150" fill="#5b4a63" opacity="0.8"/>
  <polygon points="650,50 668,66 632,66" fill="#e8e4ec" opacity="0.85"/>
  <polygon points="750,150 830,65 900,150" fill="#5b4a63" opacity="0.8"/>
  <polygon points="830,65 846,80 814,80" fill="#e8e4ec" opacity="0.8"/>

  <polygon points="-20,160 130,30 260,160" fill="#2e2433"/>
  <polygon points="130,30 150,48 110,48" fill="#d9d3df" opacity="0.9"/>
  <polygon points="660,160 790,25 920,160" fill="#2e2433"/>
  <polygon points="790,25 810,44 770,44" fill="#d9d3df" opacity="0.9"/>

  <use href="#pine" transform="translate(90.38815709828033,143.5041567723908) scale(0.73)" fill="#2c4a33"/>
  <use href="#pine" transform="translate(12.455248866938256,131.48033680452596) scale(0.56)" fill="#2c4a33"/>
  <use href="#pine" transform="translate(7.979666680159109,129.98089395640116) scale(0.50)" fill="#2c4a33"/>
  <use href="#pine" transform="translate(124.43016193533961,150.15139122877315) scale(0.71)" fill="#2c4a33"/>
  <use href="#pine" transform="translate(121.60094863417933,161.60318867606114) scale(0.83)" fill="#2c4a33"/>
  <use href="#pine" transform="translate(59.204079028174505,143.85321666506348) scale(0.78)" fill="#2c4a33"/>
  <use href="#pine" transform="translate(168.90191407142459,165.75733421107824) scale(1.00)" fill="#2c4a33"/>
  <use href="#pine" transform="translate(4.440630991504445,134.77164257612992) scale(0.58)" fill="#2c4a33"/>
  <use href="#pine" transform="translate(34.71907584080564,129.98579350544188) scale(0.54)" fill="#2c4a33"/>
  <use href="#pine" transform="translate(242.99917132720972,179.59142872179862) scale(1.08)" fill="#15301d"/>
  <use href="#pine" transform="translate(188.06317536711705,169.83976826927233) scale(0.98)" fill="#2c4a33"/>
  <use href="#pine" transform="translate(9.464582241730174,123.16202124253009) scale(0.45)" fill="#2c4a33"/>
  <use href="#pine" transform="translate(200.92399168635365,173.7237416175263) scale(0.98)" fill="#2c4a33"/>
  <use href="#pine" transform="translate(171.524177687368,167.27325814898492) scale(0.91)" fill="#2c4a33"/>
  <use href="#pine" transform="translate(236.25763927197227,186.3106934364667) scale(1.09)" fill="#15301d"/>
  <use href="#pine" transform="translate(168.071350180188,167.6197924363604) scale(1.01)" fill="#2c4a33"/>
  <use href="#pine" transform="translate(826.1280397261575,141.84379496880624) scale(0.77)" fill="#2c4a33"/>
  <use href="#pine" transform="translate(636.6003912590382,188.14987385478804) scale(1.19)" fill="#15301d"/>
  <use href="#pine" transform="translate(647.1152057447565,186.82986160050305) scale(1.06)" fill="#15301d"/>
  <use href="#pine" transform="translate(807.1469155256625,153.89885357008376) scale(0.82)" fill="#2c4a33"/>
  <use href="#pine" transform="translate(871.3981216675754,131.69373181646864) scale(0.62)" fill="#2c4a33"/>
  <use href="#pine" transform="translate(784.2546619025557,156.28556882459023) scale(0.83)" fill="#2c4a33"/>
  <use href="#pine" transform="translate(860.3900119588878,144.35722806465316) scale(0.71)" fill="#2c4a33"/>
  <use href="#pine" transform="translate(805.8871836971491,142.93036797888738) scale(0.73)" fill="#2c4a33"/>
  <use href="#pine" transform="translate(800.6099449035773,159.0805478872981) scale(0.91)" fill="#2c4a33"/>
  <use href="#pine" transform="translate(688.2246149491863,175.58691959100392) scale(1.05)" fill="#15301d"/>
  <use href="#pine" transform="translate(606.9945076972325,195.75507278477534) scale(1.17)" fill="#15301d"/>
  <use href="#pine" transform="translate(636.2996962893369,182.47334157512236) scale(1.14)" fill="#15301d"/>
  <use href="#pine" transform="translate(640.0954688257921,184.60622794646582) scale(1.10)" fill="#15301d"/>
  <use href="#pine" transform="translate(870.1408119791529,128.25644469073322) scale(0.54)" fill="#2c4a33"/>
  <use href="#pine" transform="translate(770.3263718346516,164.39132112831217) scale(0.96)" fill="#2c4a33"/>
  <use href="#pine" transform="translate(867.8351856065397,131.95986039069646) scale(0.58)" fill="#2c4a33"/>
  <use href="#pine" transform="translate(420.45592629285494,163.26289240797325) scale(0.49)" fill="#2c4a33"/>
  <use href="#pine" transform="translate(362.2578536215105,152.64326592735554) scale(0.38)" fill="#2c4a33"/>
  <use href="#pine" transform="translate(385.3341034306411,157.27444095512035) scale(0.44)" fill="#2c4a33"/>
  <use href="#pine" transform="translate(393.5690534035906,150.06140405077596) scale(0.41)" fill="#2c4a33"/>
  <use href="#pine" transform="translate(423.39100041052313,158.49511835559588) scale(0.49)" fill="#2c4a33"/>
  <use href="#pine" transform="translate(513.3382239980738,157.7323714960617) scale(0.44)" fill="#2c4a33"/>
  <use href="#pine" transform="translate(509.33602308586035,150.80989339835685) scale(0.48)" fill="#2c4a33"/>
  <use href="#pine" transform="translate(538.3914573977004,163.11769776201714) scale(0.47)" fill="#2c4a33"/>

  <path d="M 430,148 C 460,170 410,190 450,215 C 480,235 440,250 460,262 L 520,262 C 500,248 540,232 500,210 C 470,190 510,168 480,148 Z" fill="url(#river)" opacity="0.92"/>
  <path d="M 448,160 L 470,160" stroke="#dbe6f0" stroke-width="2" opacity="0.5"/>
  <path d="M 460,200 L 486,200" stroke="#dbe6f0" stroke-width="2" opacity="0.4"/>

  <rect x="0" y="208" width="900" height="52" fill="#2a3320"/>
  <path d="M 0,212 C 150,205 280,222 430,214 L 430,260 L 0,260 Z" fill="#3b3a22" opacity="0.6"/>

  <g transform="scale(0.95)">
    <g id="steve" transform="translate(60,168)">
      <animateTransform attributeName="transform" type="translate" values="60,168; 700,168; 60,168" dur="20s" repeatCount="indefinite" calcMode="linear"/>
      <rect x="8" y="0" width="16" height="6" fill="#4A2F1B"/>
      <rect x="8" y="6" width="16" height="10" fill="#C68642"/>
      <rect x="11" y="10" width="3" height="3" fill="#FFFFFF"/>
      <rect x="18" y="10" width="3" height="3" fill="#FFFFFF"/>
      <rect x="8" y="16" width="16" height="18" fill="#1BB6B0"/>
      <rect x="2" y="16" width="6" height="16" fill="#C68642"/>
      <rect x="24" y="16" width="6" height="16" fill="#C68642"/>
      <rect x="8" y="34" width="7" height="20" fill="#3454A8">
        <animate attributeName="height" values="20;13;20" dur="0.6s" repeatCount="indefinite"/>
      </rect>
      <rect x="17" y="34" width="7" height="13" fill="#3454A8">
        <animate attributeName="height" values="13;20;13" dur="0.6s" repeatCount="indefinite"/>
      </rect>
    </g>
  </g>
</svg>
